<svg id="my-svg" width="100%" xmlns="http://www.w3.org/2000/svg" xmlns:xlink="http://www.w3.org/1999/xlink" class="classDiagram" style="max-width: 416.797px; background-color: transparent;" viewBox="4 4 416.796 900" role="graphics-document document" aria-roledescription="classDiagram"><style>#my-svg{font-family:"Helvetica Neue",Helvetica,Arial,sans-serif;font-size:15px;fill:#1f201d;}@keyframes edge-animation-frame{from{stroke-dashoffset:0;}}@keyframes dash{to{stroke-dashoffset:0;}}#my-svg .edge-animation-slow{stroke-dasharray:9,5!important;stroke-dashoffset:900;animation:dash 50s linear infinite;stroke-linecap:round;}#my-svg .edge-animation-fast{stroke-dasharray:9,5!important;stroke-dashoffset:900;animation:dash 20s linear infinite;stroke-linecap:round;}#my-svg .error-icon{fill:#ffffff;}#my-svg .error-text{fill:#1f201d;stroke:#1f201d;}#my-svg .edge-thickness-normal{stroke-width:1px;}#my-svg .edge-thickness-thick{stroke-width:3.5px;}#my-svg .edge-pattern-solid{stroke-dasharray:0;}#my-svg .edge-thickness-invisible{stroke-width:0;fill:none;}#my-svg .edge-pattern-dashed{stroke-dasharray:3;}#my-svg .edge-pattern-dotted{stroke-dasharray:2;}#my-svg .marker{fill:#6b6963;stroke:#6b6963;}#my-svg .marker.cross{stroke:#6b6963;}#my-svg svg{font-family:"Helvetica Neue",Helvetica,Arial,sans-serif;font-size:15px;}#my-svg p{margin:0;}#my-svg g.classGroup text{fill:#426a57;stroke:none;font-family:"Helvetica Neue",Helvetica,Arial,sans-serif;font-size:10px;}#my-svg g.classGroup text .title{font-weight:bolder;}#my-svg .cluster-label text{fill:#1f201d;}#my-svg .cluster-label span{color:#1f201d;}#my-svg .cluster-label span p{background-color:transparent;}#my-svg .cluster rect{fill:#ffffff;stroke:#d6d2c7;stroke-width:1px;}#my-svg .cluster text{fill:#1f201d;}#my-svg .cluster span{color:#1f201d;}#my-svg .nodeLabel,#my-svg .edgeLabel{color:#1f201d;}#my-svg .noteLabel .nodeLabel,#my-svg .noteLabel .edgeLabel{color:#1f201d;}#my-svg .edgeLabel .label rect{fill:#f1efe8;}#my-svg .label text{fill:#1f201d;}#my-svg .labelBkg{background:#f1efe8;}#my-svg .edgeLabel .label span{background:#f1efe8;}#my-svg .classTitle{font-weight:bolder;}#my-svg .node rect,#my-svg .node circle,#my-svg .node ellipse,#my-svg .node polygon,#my-svg .node path{fill:#f1efe8;stroke:#426a57;stroke-width:1;}#my-svg .divider{stroke:#426a57;stroke-width:1;}#my-svg g.clickable{cursor:pointer;}#my-svg g.classGroup rect{fill:#f1efe8;stroke:#426a57;}#my-svg g.classGroup line{stroke:#426a57;stroke-width:1;}#my-svg .classLabel .box{stroke:none;stroke-width:0;fill:#f1efe8;opacity:0.5;}#my-svg .classLabel .label{fill:#426a57;font-size:10px;}#my-svg .relation{stroke:#6b6963;stroke-width:1;fill:none;}#my-svg .dashed-line{stroke-dasharray:3;}#my-svg .dotted-line{stroke-dasharray:1 2;}#my-svg [id$="-compositionStart"],#my-svg .composition{fill:#6b6963!important;stroke:#6b6963!important;stroke-width:1;}#my-svg [id$="-compositionEnd"],#my-svg .composition{fill:#6b6963!important;stroke:#6b6963!important;stroke-width:1;}#my-svg [id$="-dependencyStart"],#my-svg .dependency{fill:#6b6963!important;stroke:#6b6963!important;stroke-width:1;}#my-svg [id$="-dependencyEnd"],#my-svg .dependency{fill:#6b6963!important;stroke:#6b6963!important;stroke-width:1;}#my-svg [id$="-extensionStart"],#my-svg .extension{fill:transparent!important;stroke:#6b6963!important;stroke-width:1;}#my-svg [id$="-extensionEnd"],#my-svg .extension{fill:transparent!important;stroke:#6b6963!important;stroke-width:1;}#my-svg [id$="-aggregationStart"],#my-svg .aggregation{fill:transparent!important;stroke:#6b6963!important;stroke-width:1;}#my-svg [id$="-aggregationEnd"],#my-svg .aggregation{fill:transparent!important;stroke:#6b6963!important;stroke-width:1;}#my-svg [id$="-lollipopStart"],#my-svg .lollipop{fill:#f1efe8!important;stroke:#6b6963!important;stroke-width:1;}#my-svg [id$="-lollipopEnd"],#my-svg .lollipop{fill:#f1efe8!important;stroke:#6b6963!important;stroke-width:1;}#my-svg .edgeTerminals{font-size:11px;line-height:initial;}#my-svg .classTitleText{text-anchor:middle;font-size:18px;fill:#1f201d;}#my-svg .edgeLabel[data-look="neo"]{background-color:#f8f7f3;text-align:center;}#my-svg .edgeLabel[data-look="neo"] p{background-color:#f8f7f3;}#my-svg .edgeLabel[data-look="neo"] rect{opacity:0.5;background-color:#f8f7f3;fill:#f8f7f3;}#my-svg .label-icon{display:inline-block;height:1em;overflow:visible;vertical-align:-0.125em;}#my-svg .node .label-icon path{fill:currentColor;stroke:revert;stroke-width:revert;}#my-svg .node .neo-node{stroke:#426a57;}#my-svg [data-look="neo"].node rect,#my-svg [data-look="neo"].cluster rect,#my-svg [data-look="neo"].node polygon{stroke:#426a57;filter:drop-shadow( 1px 2px 2px rgba(185,185,185,1));}#my-svg [data-look="neo"].swimlane.cluster rect{filter:none;}#my-svg [data-look="neo"].node path{stroke:#426a57;stroke-width:1px;}#my-svg [data-look="neo"].node .outer-path{filter:drop-shadow( 1px 2px 2px rgba(185,185,185,1));}#my-svg [data-look="neo"].node .neo-line path{stroke:#426a57;filter:none;}#my-svg [data-look="neo"].node circle{stroke:#426a57;filter:drop-shadow( 1px 2px 2px rgba(185,185,185,1));}#my-svg [data-look="neo"].node circle .state-start{fill:#000000;}#my-svg [data-look="neo"].icon-shape .icon{fill:#426a57;filter:drop-shadow( 1px 2px 2px rgba(185,185,185,1));}#my-svg [data-look="neo"].icon-shape .icon-neo path{stroke:#426a57;filter:drop-shadow( 1px 2px 2px rgba(185,185,185,1));}#my-svg :root{--mermaid-font-family:"trebuchet ms",verdana,arial,sans-serif;}</style><g><defs><marker id="my-svg_classDiagram-aggregationStart" class="marker aggregation classDiagram" refX="18" refY="7" markerWidth="190" markerHeight="240" orient="auto" markerUnits="userSpaceOnUse"><path d="M 18,7 L9,13 L1,7 L9,1 Z"/></marker></defs><defs><marker id="my-svg_classDiagram-aggregationEnd" class="marker aggregation classDiagram" refX="1" refY="7" markerWidth="20" markerHeight="28" orient="auto" markerUnits="userSpaceOnUse"><path d="M 18,7 L9,13 L1,7 L9,1 Z"/></marker></defs><defs><marker id="my-svg_classDiagram-aggregationStart-margin" class="marker aggregation classDiagram" refX="15" refY="7" markerWidth="190" markerHeight="240" orient="auto" markerUnits="userSpaceOnUse"><path d="M 18,7 L9,13 L1,7 L9,1 Z" style="stroke-width: 2;"/></marker></defs><defs><marker id="my-svg_classDiagram-aggregationEnd-margin" class="marker aggregation classDiagram" refX="1" refY="7" markerWidth="20" markerHeight="28" orient="auto" markerUnits="userSpaceOnUse"><path d="M 18,7 L9,13 L1,7 L9,1 Z" style="stroke-width: 2;"/></marker></defs><defs><marker id="my-svg_classDiagram-extensionStart" class="marker extension classDiagram" refX="18" refY="7" markerWidth="20" markerHeight="28" orient="auto" markerUnits="userSpaceOnUse"><path d="M 1,7 L18,13 V 1 Z"/></marker></defs><defs><marker id="my-svg_classDiagram-extensionEnd" class="marker extension classDiagram" refX="1" refY="7" markerWidth="20" markerHeight="28" orient="auto" markerUnits="userSpaceOnUse"><path d="M 1,1 V 13 L18,7 Z"/></marker></defs><marker id="my-svg_classDiagram-extensionStart-margin" class="marker extension classDiagram" refX="18" refY="7" markerWidth="20" markerHeight="28" orient="auto" markerUnits="userSpaceOnUse" viewBox="0 0 20 14"><polygon points="10,7 18,13 18,1" style="stroke-width: 2; stroke-dasharray: 0;"/></marker><defs><marker id="my-svg_classDiagram-extensionEnd-margin" class="marker extension classDiagram" refX="9" refY="7" markerWidth="20" markerHeight="28" orient="auto" markerUnits="userSpaceOnUse" viewBox="0 0 20 14"><polygon points="10,1 10,13 18,7" style="stroke-width: 2; stroke-dasharray: 0;"/></marker></defs><defs><marker id="my-svg_classDiagram-compositionStart" class="marker composition classDiagram" refX="18" refY="7" markerWidth="190" markerHeight="240" orient="auto" markerUnits="userSpaceOnUse"><path d="M 18,7 L9,13 L1,7 L9,1 Z"/></marker></defs><defs><marker id="my-svg_classDiagram-compositionEnd" class="marker composition classDiagram" refX="1" refY="7" markerWidth="20" markerHeight="28" orient="auto" markerUnits="userSpaceOnUse"><path d="M 18,7 L9,13 L1,7 L9,1 Z"/></marker></defs><defs><marker id="my-svg_classDiagram-compositionStart-margin" class="marker composition classDiagram" refX="15" refY="7" markerWidth="190" markerHeight="240" orient="auto" markerUnits="userSpaceOnUse"><path viewBox="0 0 15 15" d="M 18,7 L9,13 L1,7 L9,1 Z" style="stroke-width: 0;"/></marker></defs><defs><marker id="my-svg_classDiagram-compositionEnd-margin" class="marker composition classDiagram" refX="3.5" refY="7" markerWidth="20" markerHeight="28" orient="auto" markerUnits="userSpaceOnUse"><path d="M 18,7 L9,13 L1,7 L9,1 Z" style="stroke-width: 0;"/></marker></defs><defs><marker id="my-svg_classDiagram-dependencyStart" class="marker dependency classDiagram" refX="6" refY="7" markerWidth="190" markerHeight="240" orient="auto" markerUnits="userSpaceOnUse"><path d="M 5,7 L9,13 L1,7 L9,1 Z"/></marker></defs><defs><marker id="my-svg_classDiagram-dependencyEnd" class="marker dependency classDiagram" refX="13" refY="7" markerWidth="20" markerHeight="28" orient="auto" markerUnits="userSpaceOnUse"><path d="M 18,7 L9,13 L14,7 L9,1 Z"/></marker></defs><defs><marker id="my-svg_classDiagram-dependencyStart-margin" class="marker dependency classDiagram" refX="4" refY="7" markerWidth="190" markerHeight="240" orient="auto" markerUnits="userSpaceOnUse"><path d="M 5,7 L9,13 L1,7 L9,1 Z" style="stroke-width: 0;"/></marker></defs><defs><marker id="my-svg_classDiagram-dependencyEnd-margin" class="marker dependency classDiagram" refX="16" refY="7" markerWidth="20" markerHeight="28" orient="auto" markerUnits="userSpaceOnUse"><path d="M 18,7 L9,13 L14,7 L9,1 Z" style="stroke-width: 0;"/></marker></defs><defs><marker id="my-svg_classDiagram-lollipopStart" class="marker lollipop classDiagram" refX="13" refY="7" markerWidth="190" markerHeight="240" orient="auto" markerUnits="userSpaceOnUse"><circle fill="transparent" cx="7" cy="7" r="6"/></marker></defs><defs><marker id="my-svg_classDiagram-lollipopEnd" class="marker lollipop classDiagram" refX="1" refY="7" markerWidth="190" markerHeight="240" orient="auto" markerUnits="userSpaceOnUse"><circle fill="transparent" cx="7" cy="7" r="6"/></marker></defs><defs><marker id="my-svg_classDiagram-lollipopStart-margin" class="marker lollipop classDiagram" refX="13" refY="7" markerWidth="190" markerHeight="240" orient="auto" markerUnits="userSpaceOnUse"><circle fill="transparent" cx="7" cy="7" r="6" stroke-width="2"/></marker></defs><defs><marker id="my-svg_classDiagram-lollipopEnd-margin" class="marker lollipop classDiagram" refX="1" refY="7" markerWidth="190" markerHeight="240" orient="auto" markerUnits="userSpaceOnUse"><circle fill="transparent" cx="7" cy="7" r="6" stroke-width="2"/></marker></defs><g class="root"><g class="clusters"/><g class="edges edgePaths"><path d="M209.882,90L209.882,124" id="my-svg-id_FoodShelterSystem_Network_1" class="edge-thickness-normal edge-pattern-solid relation" style="stroke-dasharray: 0 0 34 0; stroke-dashoffset: 0;;;;" data-edge="true" data-et="edge" data-id="id_FoodShelterSystem_Network_1" data-points="W3sieCI6MjA5Ljg4MjgxMjUsInkiOjkwfSx7IngiOjIwOS44ODI4MTI1LCJ5IjoxMzB9XQ==" data-look="neo" marker-end="url(#my-svg_classDiagram-dependencyEnd-margin)"/><path d="M199.068,208L199.068,220.928Q199.068,228 191.997,228L114.071,228Q107,228 107,235.071L107,319.5" id="my-svg-id_Network_Enterprise_2" class="edge-thickness-normal edge-pattern-solid relation" style="stroke-dasharray: 0 0 198.240 0; stroke-dashoffset: 0;;;;" data-edge="true" data-et="edge" data-id="id_Network_Enterprise_2" data-points="W3sieCI6MTk5LjA2ODY1NDM3ODI1NTIyLCJ5IjoyMDh9LHsieCI6MTk5LjA2ODY1NDM3ODI1NTIyLCJ5IjoyMjh9LHsieCI6MTA3LCJ5IjoyMjh9LHsieCI6MTA3LCJ5IjozMjUuNX1d" data-look="neo" marker-end="url(#my-svg_classDiagram-dependencyEnd-margin)"/><path d="M107,403.5L107,515" id="my-svg-id_Enterprise_Organization_3" class="edge-thickness-normal edge-pattern-solid relation" style="stroke-dasharray: 0 0 111.5 0; stroke-dashoffset: 0;;;;" data-edge="true" data-et="edge" data-id="id_Enterprise_Organization_3" data-points="W3sieCI6MTA3LCJ5Ijo0MDMuNX0seyJ4IjoxMDcsInkiOjUyMX1d" data-look="neo" marker-end="url(#my-svg_classDiagram-dependencyEnd-margin)"/><path d="M107,599L107,633" id="my-svg-id_Organization_UserAccount_4" class="edge-thickness-normal edge-pattern-solid relation" style="stroke-dasharray: 0 0 34 0; stroke-dashoffset: 0;;;;" data-edge="true" data-et="edge" data-id="id_Organization_UserAccount_4" data-points="W3sieCI6MTA3LCJ5Ijo1OTl9LHsieCI6MTA3LCJ5Ijo2Mzl9XQ==" data-look="neo" marker-end="url(#my-svg_classDiagram-dependencyEnd-margin)"/><path d="M107,717L107,812" id="my-svg-id_UserAccount_Role_5" class="edge-thickness-normal edge-pattern-solid relation" style="stroke-dasharray: 0 0 95 0; stroke-dashoffset: 0;;;;" data-edge="true" data-et="edge" data-id="id_UserAccount_Role_5" data-points="W3sieCI6MTA3LCJ5Ijo3MTd9LHsieCI6MTA3LCJ5Ijo4MTh9XQ==" data-look="neo" marker-end="url(#my-svg_classDiagram-dependencyEnd-margin)"/><path d="M220.696,208L220.696,220.928Q220.696,228 227.768,228L305.694,228Q312.765,228 312.765,235.071L312.765,319.5" id="my-svg-id_Network_WorkQueue_6" class="edge-thickness-normal edge-pattern-solid relation" style="stroke-dasharray: 0 0 198.240 0; stroke-dashoffset: 0;;;;" data-edge="true" data-et="edge" data-id="id_Network_WorkQueue_6" data-points="W3sieCI6MjIwLjY5Njk3MDYyMTc0NDc4LCJ5IjoyMDh9LHsieCI6MjIwLjY5Njk3MDYyMTc0NDc4LCJ5IjoyMjh9LHsieCI6MzEyLjc2NTYyNSwieSI6MjI4fSx7IngiOjMxMi43NjU2MjUsInkiOjMyNS41fV0=" data-look="neo" marker-end="url(#my-svg_classDiagram-dependencyEnd-margin)"/><path d="M312.765,403.5L312.765,515" id="my-svg-id_WorkQueue_WorkRequest_7" class="edge-thickness-normal edge-pattern-solid relation" style="stroke-dasharray: 0 0 111.5 0; stroke-dashoffset: 0;;;;" data-edge="true" data-et="edge" data-id="id_WorkQueue_WorkRequest_7" data-points="W3sieCI6MzEyLjc2NTYyNSwieSI6NDAzLjV9LHsieCI6MzEyLjc2NTYyNSwieSI6NTIxfV0=" data-look="neo" marker-end="url(#my-svg_classDiagram-dependencyEnd-margin)"/></g><g class="edgeLabels"><g class="edgeLabel"><g class="label" data-id="id_FoodShelterSystem_Network_1" transform="translate(0, 0)"><text y="-10.1" text-anchor="middle"><tspan class="text-outer-tspan row" x="0" y="-0.1em" dy="1.1em" text-anchor="middle"/></text></g></g><g><rect class="background" style="stroke: none"/></g><g class="edgeTerminals" transform="translate(194.882, 107.499)"><g class="inner" transform="translate(0, -7)"><g><rect class="background" style="stroke: none"/><text y="-10.1" text-anchor="middle"><tspan class="text-outer-tspan row" x="0" y="-0.1em" dy="1.1em" text-anchor="middle"><tspan font-style="normal" class="text-inner-tspan" font-weight="normal">1</tspan></tspan></text></g></g></g><g class="edgeTerminals" transform="translate(219.882, 107.499)"><g class="inner" transform="translate(0, -7)"/><g><rect class="background" style="stroke: none"/><text y="-10.1" text-anchor="middle"><tspan class="text-outer-tspan row" x="0" y="-0.1em" dy="1.1em" text-anchor="middle"><tspan font-style="normal" class="text-inner-tspan" font-weight="normal">*</tspan></tspan></text></g></g><g class="edgeLabel" transform="translate(106.687, 266.75)"><g class="label" data-id="id_Network_Enterprise_2" transform="translate(0, -9.552)"><g><rect class="background" style="" x="-71.187" y="-1" width="142.375" height="21.105"/><text y="-10.1" text-anchor="middle" style=""><tspan class="text-outer-tspan row" x="0" y="-0.1em" dy="1.1em" text-anchor="middle"><tspan font-style="normal" class="text-inner-tspan" font-weight="normal">four</tspan><tspan font-style="normal" class="text-inner-tspan" font-weight="normal"> enterprise</tspan><tspan font-style="normal" class="text-inner-tspan" font-weight="normal"> types</tspan></tspan></text></g></g></g><g class="edgeTerminals" transform="translate(179.568, 208.999)"><g class="inner" transform="translate(0, -7)"><g><rect class="background" style="stroke: none"/><text y="-10.1" text-anchor="middle"><tspan class="text-outer-tspan row" x="0" y="-0.1em" dy="1.1em" text-anchor="middle"><tspan font-style="normal" class="text-inner-tspan" font-weight="normal">1</tspan></tspan></text></g></g></g><g class="edgeTerminals" transform="translate(117, 303)"><g class="inner" transform="translate(0, -7)"/><g><rect class="background" style="stroke: none"/><text y="-10.1" text-anchor="middle"><tspan class="text-outer-tspan row" x="0" y="-0.1em" dy="1.1em" text-anchor="middle"><tspan font-style="normal" class="text-inner-tspan" font-weight="normal">*</tspan></tspan></text></g></g><g class="edgeLabel" transform="translate(106.632, 462.25)"><g class="label" data-id="id_Enterprise_Organization_3" transform="translate(0, -9.567)"><g><rect class="background" style="" x="-85.132" y="-1" width="170.265" height="21.135"/><text y="-10.1" text-anchor="middle" style=""><tspan class="text-outer-tspan row" x="0" y="-0.1em" dy="1.1em" text-anchor="middle"><tspan font-style="normal" class="text-inner-tspan" font-weight="normal">seven</tspan><tspan font-style="normal" class="text-inner-tspan" font-weight="normal"> organization</tspan><tspan font-style="normal" class="text-inner-tspan" font-weight="normal"> types</tspan></tspan></text></g></g></g><g class="edgeTerminals" transform="translate(92, 421)"><g class="inner" transform="translate(0, -7)"><g><rect class="background" style="stroke: none"/><text y="-10.1" text-anchor="middle"><tspan class="text-outer-tspan row" x="0" y="-0.1em" dy="1.1em" text-anchor="middle"><tspan font-style="normal" class="text-inner-tspan" font-weight="normal">1</tspan></tspan></text></g></g></g><g class="edgeTerminals" transform="translate(117, 498.5)"><g class="inner" transform="translate(0, -7)"/><g><rect class="background" style="stroke: none"/><text y="-10.1" text-anchor="middle"><tspan class="text-outer-tspan row" x="0" y="-0.1em" dy="1.1em" text-anchor="middle"><tspan font-style="normal" class="text-inner-tspan" font-weight="normal">*</tspan></tspan></text></g></g><g class="edgeLabel"><g class="label" data-id="id_Organization_UserAccount_4" transform="translate(0, 0)"><text y="-10.1" text-anchor="middle"><tspan class="text-outer-tspan row" x="0" y="-0.1em" dy="1.1em" text-anchor="middle"/></text></g></g><g><rect class="background" style="stroke: none"/></g><g class="edgeTerminals" transform="translate(92, 616.5)"><g class="inner" transform="translate(0, -7)"><g><rect class="background" style="stroke: none"/><text y="-10.1" text-anchor="middle"><tspan class="text-outer-tspan row" x="0" y="-0.1em" dy="1.1em" text-anchor="middle"><tspan font-style="normal" class="text-inner-tspan" font-weight="normal">1</tspan></tspan></text></g></g></g><g class="edgeTerminals" transform="translate(117, 616.5)"><g class="inner" transform="translate(0, -7)"/><g><rect class="background" style="stroke: none"/><text y="-10.1" text-anchor="middle"><tspan class="text-outer-tspan row" x="0" y="-0.1em" dy="1.1em" text-anchor="middle"><tspan font-style="normal" class="text-inner-tspan" font-weight="normal">*</tspan></tspan></text></g></g><g class="edgeLabel" transform="translate(106.523, 767.5)"><g class="label" data-id="id_UserAccount_Role_5" transform="translate(0, -9.5)"><g><rect class="background" style="" x="-94.523" y="-1" width="189.046" height="21"/><text y="-10.1" text-anchor="middle" style=""><tspan class="text-outer-tspan row" x="0" y="-0.1em" dy="1.1em" text-anchor="middle"><tspan font-style="normal" class="text-inner-tspan" font-weight="normal">one</tspan><tspan font-style="normal" class="text-inner-tspan" font-weight="normal"> of</tspan><tspan font-style="normal" class="text-inner-tspan" font-weight="normal"> fourteen</tspan><tspan font-style="normal" class="text-inner-tspan" font-weight="normal"> role</tspan><tspan font-style="normal" class="text-inner-tspan" font-weight="normal"> classes</tspan></tspan></text></g></g></g><g class="edgeLabel" transform="translate(312.710, 266.75)"><g class="label" data-id="id_Network_WorkQueue_6" transform="translate(0, -17.75)"><g><rect class="background" style="" x="-89.945" y="-1" width="179.890" height="37.5"/><text y="-10.1" text-anchor="middle" style=""><tspan class="text-outer-tspan row" x="0" y="-0.1em" dy="1.1em" text-anchor="middle"><tspan font-style="normal" class="text-inner-tspan" font-weight="normal">inspection</tspan><tspan font-style="normal" class="text-inner-tspan" font-weight="normal"> and</tspan><tspan font-style="normal" class="text-inner-tspan" font-weight="normal"> warehouse</tspan></tspan><tspan class="text-outer-tspan row" x="0" y="1em" dy="1.1em" text-anchor="middle"><tspan font-style="normal" class="text-inner-tspan" font-weight="normal">queues</tspan></tspan></text></g></g></g><g class="edgeTerminals" transform="translate(216.196, 226.999)"><g class="inner" transform="translate(0, -7)"><g><rect class="background" style="stroke: none"/><text y="-10.1" text-anchor="middle"><tspan class="text-outer-tspan row" x="0" y="-0.1em" dy="1.1em" text-anchor="middle"><tspan font-style="normal" class="text-inner-tspan" font-weight="normal">1</tspan></tspan></text></g></g></g><g class="edgeTerminals" transform="translate(322.765, 303.000)"><g class="inner" transform="translate(0, -7)"/><g><rect class="background" style="stroke: none"/><text y="-10.1" text-anchor="middle"><tspan class="text-outer-tspan row" x="0" y="-0.1em" dy="1.1em" text-anchor="middle"><tspan font-style="normal" class="text-inner-tspan" font-weight="normal">*</tspan></tspan></text></g></g><g class="edgeLabel" transform="translate(312.281, 462.25)"><g class="label" data-id="id_WorkQueue_WorkRequest_7" transform="translate(0, -17.75)"><g><rect class="background" style="" x="-100.515" y="-1" width="201.031" height="37.5"/><text y="-10.1" text-anchor="middle" style=""><tspan class="text-outer-tspan row" x="0" y="-0.1em" dy="1.1em" text-anchor="middle"><tspan font-style="normal" class="text-inner-tspan" font-weight="normal">delivery,</tspan><tspan font-style="normal" class="text-inner-tspan" font-weight="normal"> food</tspan><tspan font-style="normal" class="text-inner-tspan" font-weight="normal"> item</tspan><tspan font-style="normal" class="text-inner-tspan" font-weight="normal"> and</tspan><tspan font-style="normal" class="text-inner-tspan" font-weight="normal"> needs</tspan></tspan><tspan class="text-outer-tspan row" x="0" y="1em" dy="1.1em" text-anchor="middle"><tspan font-style="normal" class="text-inner-tspan" font-weight="normal">requests</tspan></tspan></text></g></g></g><g class="edgeTerminals" transform="translate(297.765, 421.000)"><g class="inner" transform="translate(0, -7)"><g><rect class="background" style="stroke: none"/><text y="-10.1" text-anchor="middle"><tspan class="text-outer-tspan row" x="0" y="-0.1em" dy="1.1em" text-anchor="middle"><tspan font-style="normal" class="text-inner-tspan" font-weight="normal">1</tspan></tspan></text></g></g></g><g class="edgeTerminals" transform="translate(322.765, 498.500)"><g class="inner" transform="translate(0, -7)"/><g><rect class="background" style="stroke: none"/><text y="-10.1" text-anchor="middle"><tspan class="text-outer-tspan row" x="0" y="-0.1em" dy="1.1em" text-anchor="middle"><tspan font-style="normal" class="text-inner-tspan" font-weight="normal">*</tspan></tspan></text></g></g></g><g class="nodes"><g class="node default" id="my-svg-classId-FoodShelterSystem-0" data-look="neo" transform="translate(209.882, 51)"><g class="basic label-container outer-path"><path d="M-82.140 -39 L82.140 -39 L82.140 39 L-82.140 39" stroke="none" stroke-width="0" fill="#f1efe8" style=""/><path d="M-82.140 -39 C-20.885 -39, 40.369 -39, 82.140 -39 M-82.140 -39 C-45.331 -39, -8.522 -39, 82.140 -39 M82.140 -39 C82.140 -16.438, 82.140 6.122, 82.140 39 M82.140 -39 C82.140 -16.479, 82.140 6.040, 82.140 39 M82.140 39 C41.021 39, -0.097 39, -82.140 39 M82.140 39 C44.239 39, 6.338 39, -82.140 39 M-82.140 39 C-82.140 10.615, -82.140 -17.768, -82.140 -39 M-82.140 39 C-82.140 11.240, -82.140 -16.518, -82.140 -39" stroke="#426a57" stroke-width="1.3" fill="none" stroke-dasharray="0 0" style=""/></g><g class="annotation-group text" transform="translate(0, -19)"/><g class="label-group text" transform="translate(-70.140, -19)"><g class="label" style="font-weight: bolder" transform="translate(0,-9)"><g><rect class="background" style="stroke: none"/><text y="-10.1" style=""><tspan class="text-outer-tspan row" x="0" y="-0.1em" dy="1.1em" font-weight=""><tspan font-style="normal" class="text-inner-tspan" font-weight="">FoodShelterSystem</tspan></tspan></text></g></g></g><g class="members-group text" transform="translate(-70.140, 23)"/><g class="methods-group text" transform="translate(-70.140, 53)"/><g class="divider neo-line" style=""><path d="M-82.140 3 C-45.593 3.000, -9.047 3.000, 82.140 3.001 M-82.140 3 C-39.712 3.000, 2.715 3.000, 82.140 3.001" stroke="#426a57" stroke-width="1.3" fill="none" stroke-dasharray="0 0" style=""/></g><g class="divider neo-line" style=""><path d="M-82.140 21 C-26.498 21.000, 29.143 21.000, 82.140 21.001 M-82.140 21 C-17.986 21.000, 46.167 21.000, 82.140 21.001" stroke="#426a57" stroke-width="1.3" fill="none" stroke-dasharray="0 0" style=""/></g></g><g class="node default" id="my-svg-classId-Network-1" data-look="neo" transform="translate(209.882, 169)"><g class="basic label-container outer-path"><path d="M-42.442 -39 L42.442 -39 L42.442 39 L-42.442 39" stroke="none" stroke-width="0" fill="#f1efe8" style=""/><path d="M-42.442 -39 C-21.868 -39, -1.294 -39, 42.442 -39 M-42.442 -39 C-23.506 -39, -4.570 -39, 42.442 -39 M42.442 -39 C42.442 -9.236, 42.442 20.527, 42.442 39 M42.442 -39 C42.442 -17.017, 42.442 4.964, 42.442 39 M42.442 39 C23.865 39, 5.289 39, -42.442 39 M42.442 39 C19.357 39, -3.727 39, -42.442 39 M-42.442 39 C-42.442 8.537, -42.442 -21.925, -42.442 -39 M-42.442 39 C-42.442 14.430, -42.442 -10.138, -42.442 -39" stroke="#426a57" stroke-width="1.3" fill="none" stroke-dasharray="0 0" style=""/></g><g class="annotation-group text" transform="translate(0, -19)"/><g class="label-group text" transform="translate(-30.442, -19)"><g class="label" style="font-weight: bolder" transform="translate(0,-9)"><g><rect class="background" style="stroke: none"/><text y="-10.1" style=""><tspan class="text-outer-tspan row" x="0" y="-0.1em" dy="1.1em" font-weight=""><tspan font-style="normal" class="text-inner-tspan" font-weight="">Network</tspan></tspan></text></g></g></g><g class="members-group text" transform="translate(-30.442, 23)"/><g class="methods-group text" transform="translate(-30.442, 53)"/><g class="divider neo-line" style=""><path d="M-42.442 3 C-20.001 3.000, 2.439 3.000, 42.442 3.001 M-42.442 3 C-19.842 3.000, 2.757 3.000, 42.442 3.001" stroke="#426a57" stroke-width="1.3" fill="none" stroke-dasharray="0 0" style=""/></g><g class="divider neo-line" style=""><path d="M-42.442 21 C-9.217 21.000, 24.007 21.000, 42.442 21.001 M-42.442 21 C-9.360 21.000, 23.721 21.000, 42.442 21.001" stroke="#426a57" stroke-width="1.3" fill="none" stroke-dasharray="0 0" style=""/></g></g><g class="node default" id="my-svg-classId-Enterprise-2" data-look="neo" transform="translate(107, 364.5)"><g class="basic label-container outer-path"><path d="M-48.937 -39 L48.937 -39 L48.937 39 L-48.937 39" stroke="none" stroke-width="0" fill="#f1efe8" style=""/><path d="M-48.937 -39 C-15.689 -39, 17.558 -39, 48.937 -39 M-48.937 -39 C-18.934 -39, 11.068 -39, 48.937 -39 M48.937 -39 C48.937 -15.388, 48.937 8.223, 48.937 39 M48.937 -39 C48.937 -8.950, 48.937 21.099, 48.937 39 M48.937 39 C10.723 39, -27.490 39, -48.937 39 M48.937 39 C13.545 39, -21.845 39, -48.937 39 M-48.937 39 C-48.937 18.725, -48.937 -1.548, -48.937 -39 M-48.937 39 C-48.937 15.110, -48.937 -8.778, -48.937 -39" stroke="#426a57" stroke-width="1.3" fill="none" stroke-dasharray="0 0" style=""/></g><g class="annotation-group text" transform="translate(0, -19)"/><g class="label-group text" transform="translate(-36.937, -19)"><g class="label" style="font-weight: bolder" transform="translate(0,-9)"><g><rect class="background" style="stroke: none"/><text y="-10.1" style=""><tspan class="text-outer-tspan row" x="0" y="-0.1em" dy="1.1em" font-weight=""><tspan font-style="normal" class="text-inner-tspan" font-weight="">Enterprise</tspan></tspan></text></g></g></g><g class="members-group text" transform="translate(-36.937, 23)"/><g class="methods-group text" transform="translate(-36.937, 53)"/><g class="divider neo-line" style=""><path d="M-48.937 3 C-18.959 3.000, 11.017 3.000, 48.937 3.001 M-48.937 3 C-27.933 3.000, -6.929 3.000, 48.937 3.001" stroke="#426a57" stroke-width="1.3" fill="none" stroke-dasharray="0 0" style=""/></g><g class="divider neo-line" style=""><path d="M-48.937 21 C-15.184 21.000, 18.567 21.000, 48.937 21.001 M-48.937 21 C-18.776 21.000, 11.385 21.000, 48.937 21.001" stroke="#426a57" stroke-width="1.3" fill="none" stroke-dasharray="0 0" style=""/></g></g><g class="node default" id="my-svg-classId-Organization-3" data-look="neo" transform="translate(107, 560)"><g class="basic label-container outer-path"><path d="M-57.617 -39 L57.617 -39 L57.617 39 L-57.617 39" stroke="none" stroke-width="0" fill="#f1efe8" style=""/><path d="M-57.617 -39 C-15.174 -39, 27.268 -39, 57.617 -39 M-57.617 -39 C-24.948 -39, 7.720 -39, 57.617 -39 M57.617 -39 C57.617 -22.596, 57.617 -6.193, 57.617 39 M57.617 -39 C57.617 -20.125, 57.617 -1.250, 57.617 39 M57.617 39 C16.445 39, -24.726 39, -57.617 39 M57.617 39 C20.137 39, -17.341 39, -57.617 39 M-57.617 39 C-57.617 15.409, -57.617 -8.180, -57.617 -39 M-57.617 39 C-57.617 8.083, -57.617 -22.833, -57.617 -39" stroke="#426a57" stroke-width="1.3" fill="none" stroke-dasharray="0 0" style=""/></g><g class="annotation-group text" transform="translate(0, -19)"/><g class="label-group text" transform="translate(-45.617, -19)"><g class="label" style="font-weight: bolder" transform="translate(0,-9)"><g><rect class="background" style="stroke: none"/><text y="-10.1" style=""><tspan class="text-outer-tspan row" x="0" y="-0.1em" dy="1.1em" font-weight=""><tspan font-style="normal" class="text-inner-tspan" font-weight="">Organization</tspan></tspan></text></g></g></g><g class="members-group text" transform="translate(-45.617, 23)"/><g class="methods-group text" transform="translate(-45.617, 53)"/><g class="divider neo-line" style=""><path d="M-57.617 3 C-15.973 3.000, 25.670 3.000, 57.617 3.001 M-57.617 3 C-26.311 3.000, 4.993 3.000, 57.617 3.001" stroke="#426a57" stroke-width="1.3" fill="none" stroke-dasharray="0 0" style=""/></g><g class="divider neo-line" style=""><path d="M-57.617 21 C-25.498 21.000, 6.619 21.000, 57.617 21.001 M-57.617 21 C-20.510 21.000, 16.595 21.000, 57.617 21.001" stroke="#426a57" stroke-width="1.3" fill="none" stroke-dasharray="0 0" style=""/></g></g><g class="node default" id="my-svg-classId-UserAccount-4" data-look="neo" transform="translate(107, 678)"><g class="basic label-container outer-path"><path d="M-58.679 -39 L58.679 -39 L58.679 39 L-58.679 39" stroke="none" stroke-width="0" fill="#f1efe8" style=""/><path d="M-58.679 -39 C-29.723 -39, -0.766 -39, 58.679 -39 M-58.679 -39 C-14.400 -39, 29.878 -39, 58.679 -39 M58.679 -39 C58.679 -9.379, 58.679 20.240, 58.679 39 M58.679 -39 C58.679 -19.545, 58.679 -0.091, 58.679 39 M58.679 39 C22.915 39, -12.849 39, -58.679 39 M58.679 39 C17.829 39, -23.020 39, -58.679 39 M-58.679 39 C-58.679 8.822, -58.679 -21.355, -58.679 -39 M-58.679 39 C-58.679 12.777, -58.679 -13.444, -58.679 -39" stroke="#426a57" stroke-width="1.3" fill="none" stroke-dasharray="0 0" style=""/></g><g class="annotation-group text" transform="translate(0, -19)"/><g class="label-group text" transform="translate(-46.679, -19)"><g class="label" style="font-weight: bolder" transform="translate(0,-9)"><g><rect class="background" style="stroke: none"/><text y="-10.1" style=""><tspan class="text-outer-tspan row" x="0" y="-0.1em" dy="1.1em" font-weight=""><tspan font-style="normal" class="text-inner-tspan" font-weight="">UserAccount</tspan></tspan></text></g></g></g><g class="members-group text" transform="translate(-46.679, 23)"/><g class="methods-group text" transform="translate(-46.679, 53)"/><g class="divider neo-line" style=""><path d="M-58.679 3 C-13.910 3.000, 30.858 3.000, 58.679 3.001 M-58.679 3 C-26.151 3.000, 6.377 3.000, 58.679 3.001" stroke="#426a57" stroke-width="1.3" fill="none" stroke-dasharray="0 0" style=""/></g><g class="divider neo-line" style=""><path d="M-58.679 21 C-22.129 21.000, 14.420 21.000, 58.679 21.001 M-58.679 21 C-28.184 21.000, 2.309 21.000, 58.679 21.001" stroke="#426a57" stroke-width="1.3" fill="none" stroke-dasharray="0 0" style=""/></g></g><g class="node default" id="my-svg-classId-Role-5" data-look="neo" transform="translate(107, 857)"><g class="basic label-container outer-path"><path d="M-28.242 -39 L28.242 -39 L28.242 39 L-28.242 39" stroke="none" stroke-width="0" fill="#f1efe8" style=""/><path d="M-28.242 -39 C-16.930 -39, -5.618 -39, 28.242 -39 M-28.242 -39 C-12.758 -39, 2.725 -39, 28.242 -39 M28.242 -39 C28.242 -8.584, 28.242 21.830, 28.242 39 M28.242 -39 C28.242 -23.166, 28.242 -7.333, 28.242 39 M28.242 39 C12.266 39, -3.710 39, -28.242 39 M28.242 39 C10.698 39, -6.844 39, -28.242 39 M-28.242 39 C-28.242 11.303, -28.242 -16.392, -28.242 -39 M-28.242 39 C-28.242 14.737, -28.242 -9.525, -28.242 -39" stroke="#426a57" stroke-width="1.3" fill="none" stroke-dasharray="0 0" style=""/></g><g class="annotation-group text" transform="translate(0, -19)"/><g class="label-group text" transform="translate(-16.242, -19)"><g class="label" style="font-weight: bolder" transform="translate(0,-9)"><g><rect class="background" style="stroke: none"/><text y="-10.1" style=""><tspan class="text-outer-tspan row" x="0" y="-0.1em" dy="1.1em" font-weight=""><tspan font-style="normal" class="text-inner-tspan" font-weight="">Role</tspan></tspan></text></g></g></g><g class="members-group text" transform="translate(-16.242, 23)"/><g class="methods-group text" transform="translate(-16.242, 53)"/><g class="divider neo-line" style=""><path d="M-28.242 3 C-12.582 3.000, 3.077 3.000, 28.242 3.001 M-28.242 3 C-12.969 3.000, 2.303 3.000, 28.242 3.001" stroke="#426a57" stroke-width="1.3" fill="none" stroke-dasharray="0 0" style=""/></g><g class="divider neo-line" style=""><path d="M-28.242 21 C-13.639 21.000, 0.964 21.000, 28.242 21.001 M-28.242 21 C-11.758 21.000, 4.725 21.000, 28.242 21.001" stroke="#426a57" stroke-width="1.3" fill="none" stroke-dasharray="0 0" style=""/></g></g><g class="node default" id="my-svg-classId-WorkQueue-6" data-look="neo" transform="translate(312.765, 364.5)"><g class="basic label-container outer-path"><path d="M-53.804 -39 L53.804 -39 L53.804 39 L-53.804 39" stroke="none" stroke-width="0" fill="#f1efe8" style=""/><path d="M-53.804 -39 C-26.892 -39, 0.019 -39, 53.804 -39 M-53.804 -39 C-21.701 -39, 10.401 -39, 53.804 -39 M53.804 -39 C53.804 -21.134, 53.804 -3.269, 53.804 39 M53.804 -39 C53.804 -19.466, 53.804 0.067, 53.804 39 M53.804 39 C15.394 39, -23.016 39, -53.804 39 M53.804 39 C11.576 39, -30.652 39, -53.804 39 M-53.804 39 C-53.804 8.349, -53.804 -22.301, -53.804 -39 M-53.804 39 C-53.804 19.548, -53.804 0.096, -53.804 -39" stroke="#426a57" stroke-width="1.3" fill="none" stroke-dasharray="0 0" style=""/></g><g class="annotation-group text" transform="translate(0, -19)"/><g class="label-group text" transform="translate(-41.804, -19)"><g class="label" style="font-weight: bolder" transform="translate(0,-9)"><g><rect class="background" style="stroke: none"/><text y="-10.1" style=""><tspan class="text-outer-tspan row" x="0" y="-0.1em" dy="1.1em" font-weight=""><tspan font-style="normal" class="text-inner-tspan" font-weight="">WorkQueue</tspan></tspan></text></g></g></g><g class="members-group text" transform="translate(-41.804, 23)"/><g class="methods-group text" transform="translate(-41.804, 53)"/><g class="divider neo-line" style=""><path d="M-53.804 3 C-10.790 3.000, 32.222 3.000, 53.804 3.001 M-53.804 3 C-24.815 3.000, 4.173 3.000, 53.804 3.001" stroke="#426a57" stroke-width="1.3" fill="none" stroke-dasharray="0 0" style=""/></g><g class="divider neo-line" style=""><path d="M-53.804 21 C-11.459 21.000, 30.885 21.000, 53.804 21.001 M-53.804 21 C-26.448 21.000, 0.908 21.000, 53.804 21.001" stroke="#426a57" stroke-width="1.3" fill="none" stroke-dasharray="0 0" style=""/></g></g><g class="node default" id="my-svg-classId-WorkRequest-7" data-look="neo" transform="translate(312.765, 560)"><g class="basic label-container outer-path"><path d="M-60.187 -39 L60.187 -39 L60.187 39 L-60.187 39" stroke="none" stroke-width="0" fill="#f1efe8" style=""/><path d="M-60.187 -39 C-26.919 -39, 6.349 -39, 60.187 -39 M-60.187 -39 C-24.542 -39, 11.102 -39, 60.187 -39 M60.187 -39 C60.187 -21.785, 60.187 -4.570, 60.187 39 M60.187 -39 C60.187 -18.540, 60.187 1.918, 60.187 39 M60.187 39 C12.768 39, -34.649 39, -60.187 39 M60.187 39 C28.960 39, -2.266 39, -60.187 39 M-60.187 39 C-60.187 19.070, -60.187 -0.859, -60.187 -39 M-60.187 39 C-60.187 21.160, -60.187 3.321, -60.187 -39" stroke="#426a57" stroke-width="1.3" fill="none" stroke-dasharray="0 0" style=""/></g><g class="annotation-group text" transform="translate(0, -19)"/><g class="label-group text" transform="translate(-48.187, -19)"><g class="label" style="font-weight: bolder" transform="translate(0,-9)"><g><rect class="background" style="stroke: none"/><text y="-10.1" style=""><tspan class="text-outer-tspan row" x="0" y="-0.1em" dy="1.1em" font-weight=""><tspan font-style="normal" class="text-inner-tspan" font-weight="">WorkRequest</tspan></tspan></text></g></g></g><g class="members-group text" transform="translate(-48.187, 23)"/><g class="methods-group text" transform="translate(-48.187, 53)"/><g class="divider neo-line" style=""><path d="M-60.187 3 C-27.254 3.000, 5.678 3.000, 60.187 3.001 M-60.187 3 C-33.510 3.000, -6.833 3.000, 60.187 3.001" stroke="#426a57" stroke-width="1.3" fill="none" stroke-dasharray="0 0" style=""/></g><g class="divider neo-line" style=""><path d="M-60.187 21 C-31.701 21.000, -3.215 21.000, 60.187 21.001 M-60.187 21 C-23.310 21.000, 13.567 21.000, 60.187 21.001" stroke="#426a57" stroke-width="1.3" fill="none" stroke-dasharray="0 0" style=""/></g></g></g></g></g><defs><filter id="my-svg-drop-shadow" height="130%" width="130%"><feDropShadow dx="4" dy="4" stdDeviation="0" flood-opacity="0.06" flood-color="#000000"/></filter></defs><defs><filter id="my-svg-drop-shadow-small" height="150%" width="150%"><feDropShadow dx="2" dy="2" stdDeviation="0" flood-opacity="0.06" flood-color="#000000"/></filter></defs></svg>